<svg xmlns="http://www.w3.org/2000/svg" viewBox="0 0 512 512">
	<g>
		<path d="M2.29,264.72c0-5.69,0-11.39,0-17.08c0.08-0.6,0.2-1.2,0.22-1.81c0.62-16.41,2.89-32.59,6.7-48.55C35.35,88,130.04,9,242.27,2.87c25.62-1.4,50.95,0.84,75.76,7.4c69.56,18.39,122.59,58.72,158.62,121c18.79,32.48,29.21,67.71,32.19,105.13c1.65,20.77,0.74,41.44-2.75,61.97c-5.77,34.01-17.93,65.58-36.54,94.65c-2.01,3.14-2.22,6.37-0.96,9.76c7.09,19.16,14.21,38.31,21.29,57.47c2.75,7.44,5.44,14.9,8.05,22.39c0.81,2.33,1.13,4.77,0.56,7.27c-1.2,5.24-4.8,8.88-9.45,9.35c-3.47,0.34-6.8-0.38-10.02-1.6c-19.63-7.39-39.24-14.84-58.88-22.23c-5.78-2.18-11.54-4.46-17.44-6.24c-4.01-1.21-8.1-0.95-11.8,1.73c-2.56,1.86-5.34,3.45-8.1,5.02c-16.66,9.51-34.14,17.14-52.47,22.8c-19.07,5.88-38.55,9.49-58.48,10.6c-2.46,0.14-4.91,0.34-7.36,0.51c-5.69,0-11.39,0-17.08,0c-0.51-0.07-1.02-0.19-1.54-0.21c-15.97-0.59-31.76-2.66-47.3-6.37c-55.31-13.2-101.52-41.4-137.82-85.14C25.64,375.79,6.49,326.86,2.79,271.93C2.63,269.53,2.45,267.12,2.29,264.72z M255.92,88.86c-5.11,0.27-10.24,0.44-15.34,0.84c-3.54,0.28-7.08,0.75-10.58,1.33c-37.61,6.15-69.92,22.72-95.78,50.7c-36.45,39.45-50.76,86.25-43.54,139.44c3.17,23.34,11.54,44.92,24.22,64.8c1.48,2.32,1.7,4.62,0.76,7.16c-5.32,14.31-10.64,28.62-15.91,42.94c-1.32,3.6-2.76,7.2-3.6,10.92c-1.32,5.88,3.24,10.38,9.13,9.3c1.71-0.31,3.42-0.81,5.05-1.42c13.31-5.01,26.6-10.09,39.91-15.1c3.23-1.22,6.49-2.42,9.82-3.31c2.38-0.64,4.76-0.26,6.91,1.25c1.94,1.36,3.97,2.6,6.04,3.75c21.97,12.26,45.41,19.77,70.58,21.49c16.9,1.15,33.65-0.01,50.18-3.89c89.42-20.98,145.09-109.04,125.46-198.74C401.87,141.06,331.7,88.63,255.92,88.86z"/>
	</g>
</svg>
